<svg xmlns="http://www.w3.org/2000/svg" width="20" height="20" viewBox="0 0 20 20"><g><g><path fill="#8d8d8d" d="M20 19.999h-1.562c0-4.652-3.786-8.437-8.438-8.437-4.652 0-8.438 3.785-8.438 8.437H0a9.933 9.933 0 0 1 2.929-7.07 9.953 9.953 0 0 1 3.8-2.384 5.78 5.78 0 0 1-2.51-4.765A5.788 5.788 0 0 1 10 0a5.788 5.788 0 0 1 5.781 5.781 5.78 5.78 0 0 1-2.51 4.765 9.954 9.954 0 0 1 3.8 2.383A9.933 9.933 0 0 1 20 19.998zm-10-10a4.224 4.224 0 0 0 4.219-4.219A4.223 4.223 0 0 0 10 1.562 4.223 4.223 0 0 0 5.781 5.78 4.224 4.224 0 0 0 10 10z"/></g></g></svg>